<svg xmlns="http://www.w3.org/2000/svg" viewBox="0 0 120.53 20.91"><defs><style>.cls-1{fill:#f1e655;}.cls-2{fill:#e6e7e8;}</style></defs><title>1st</title><g id="Layer_2" data-name="Layer 2"><g id="Layer_1-2" data-name="Layer 1"><polygon class="cls-1" points="10.99 0 14.39 6.88 21.99 7.99 16.49 13.35 17.79 20.91 10.99 17.34 4.2 20.91 5.5 13.35 0 7.99 7.6 6.88 10.99 0"/><polygon class="cls-2" points="35.63 0 39.03 6.88 46.63 7.99 41.13 13.35 42.42 20.91 35.63 17.34 28.83 20.91 30.13 13.35 24.63 7.99 32.23 6.88 35.63 0"/><polygon class="cls-2" points="60.26 0 63.66 6.88 71.26 7.99 65.76 13.35 67.06 20.91 60.26 17.34 53.47 20.91 54.77 13.35 49.27 7.99 56.87 6.88 60.26 0"/><polygon class="cls-2" points="84.9 0 88.3 6.88 95.89 7.99 90.39 13.35 91.69 20.91 84.9 17.34 78.1 20.91 79.4 13.35 73.9 7.99 81.5 6.88 84.9 0"/><polygon class="cls-2" points="109.53 0 112.93 6.88 120.53 7.99 115.03 13.35 116.33 20.91 109.53 17.34 102.74 20.91 104.03 13.35 98.54 7.99 106.13 6.88 109.53 0"/><polygon class="cls-1" points="16.49 13.35 21.99 7.99 14.39 6.88 10.99 0 10.99 17.34 17.79 20.91 16.49 13.35"/></g></g></svg>