<svg xmlns="http://www.w3.org/2000/svg" viewBox="2032.725 406.756 181.828 161.244"><defs><style>.a{fill:#9cb4c4;}</style></defs><g transform="translate(2032.752 406.78)"><g transform="translate(-0.027 -0.024)"><path class="a" d="M136.7,36.33a14,14,0,0,1,1.311-1.821c10.78-10.743,21.6-21.523,32.376-32.23,3.314-3.278,7.684-3.023,10.2.546,1.93,2.731,1.566,5.936-1.056,8.522q-16.825,16.771-33.687,33.5Q114.919,75.607,84,106.326c-3.787,3.787-7.356,3.751-11.18-.073Q57.524,90.793,42.228,75.3A6.386,6.386,0,0,1,48.31,64.445a8.456,8.456,0,0,1,3.314,2.112c8.558,8.449,17.007,16.971,25.493,25.493a11.9,11.9,0,0,1,1.238,2.076c16.425-16.789,32.267-33.031,48.254-49.383a62.192,62.192,0,0,0-16.133-14.349C73.329,7.268,24.238,27.808,14.623,70.49c-8.012,35.544,15.441,70.833,51.168,76.915,34.524,5.9,67.811-17.59,73.6-52.005.619-3.678.728-7.466,1.02-11.217a6.5,6.5,0,0,1,5.754-6.082,6.385,6.385,0,0,1,6.81,4.334,9.652,9.652,0,0,1,.364,3.241c-.983,27.132-12.856,48.254-35.435,63.186-14.021,9.287-29.717,13.584-46.506,12.054-28.77-2.586-50.221-16.971-63.186-42.682A76.037,76.037,0,0,1,62.076,9.126c28.952-5.5,53.316,3.642,73.055,25.42C135.532,34.983,135.9,35.42,136.7,36.33Z" transform="translate(0.027 0.024)"/></g></g></svg>