<svg xmlns="http://www.w3.org/2000/svg" viewBox="0 0 119.8 39.24"><defs><style>.cls-1{fill:#fff;}</style></defs><title>logo2</title><g id="Layer_2" data-name="Layer 2"><g id="Layer_1-2" data-name="Layer 1"><path class="cls-1" d="M24.13,39.24a3,3,0,0,1-3-3V3a3,3,0,0,1,6,0V36.24A3,3,0,0,1,24.13,39.24Z"/><path class="cls-1" d="M69,39.24a9.85,9.85,0,0,1-9.83-9.83V3a3,3,0,0,1,6,0V29.41A3.84,3.84,0,0,0,69,33.24a3,3,0,0,1,0,6Z"/><path class="cls-1" d="M116.8,39.24a3,3,0,0,1-3-3V3a3,3,0,0,1,6,0V36.24A3,3,0,0,1,116.8,39.24Z"/><path class="cls-1" d="M13.56,39.24A13.56,13.56,0,1,1,27.13,25.68,13.58,13.58,0,0,1,13.56,39.24Zm0-21.12a7.56,7.56,0,1,0,7.56,7.56A7.57,7.57,0,0,0,13.56,18.12Z"/><path class="cls-1" d="M95.42,39.24a3,3,0,0,1-3-3V15.12a3,3,0,1,1,6,0V36.24A3,3,0,0,1,95.42,39.24Z"/><path class="cls-1" d="M106,39.24a3,3,0,0,1-3-3V15.12a3,3,0,1,1,6,0V36.24A3,3,0,0,1,106,39.24Z"/><path class="cls-1" d="M84.86,39.24A13.56,13.56,0,1,1,98.42,25.68,13.58,13.58,0,0,1,84.86,39.24Zm0-21.12a7.56,7.56,0,1,0,7.56,7.56A7.57,7.57,0,0,0,84.86,18.12Z"/><path class="cls-1" d="M43,39.24A13.56,13.56,0,1,1,56.58,25.68a3,3,0,0,1-3,3H36.07a7.56,7.56,0,0,0,12.37,2.26,3,3,0,1,1,4.31,4.17A13.46,13.46,0,0,1,43,39.24ZM36.07,22.68H50a7.56,7.56,0,0,0-13.88,0Z"/><path class="cls-1" d="M73.3,14.08H56a3,3,0,1,1,0-6H73.3a3,3,0,1,1,0,6Z"/></g></g></svg>