<svg xmlns="http://www.w3.org/2000/svg" viewBox="0 0 117.84 117.84"><defs><style>.cls-1{fill:#10ee2a;}</style></defs><title>profileicon</title><g id="Layer_2" data-name="Layer 2"><g id="Layer_1-2" data-name="Layer 1"><path class="cls-1" d="M80.24,85.43H37.6a8.32,8.32,0,0,1-8.31-8.31V73A21.58,21.58,0,0,1,42.42,53.07a19.78,19.78,0,1,1,33,0A21.58,21.58,0,0,1,88.56,73v4.15A8.32,8.32,0,0,1,80.24,85.43Zm-21.32-57a13.78,13.78,0,0,0-9.23,24l4.56,4.12-6.05,1.06A15.58,15.58,0,0,0,35.28,73v4.15a2.32,2.32,0,0,0,2.31,2.31H80.24a2.32,2.32,0,0,0,2.31-2.31V73A15.58,15.58,0,0,0,69.65,57.59l-6.05-1.06,4.56-4.12a13.78,13.78,0,0,0-9.23-24Z"/><path class="cls-1" d="M58.92,117.84a58.92,58.92,0,1,1,58.92-58.92A59,59,0,0,1,58.92,117.84ZM58.92,6a52.92,52.92,0,1,0,52.92,52.92A53,53,0,0,0,58.92,6Z"/></g></g></svg>